<mxfile host="65bd71144e">
    <diagram name="Page-1" id="FN0YQ4AkqSO-CQsx_cC9">
        <mxGraphModel dx="1838" dy="808" grid="1" gridSize="10" guides="1" tooltips="1" connect="1" arrows="1" fold="1" page="1" pageScale="1" pageWidth="1169" pageHeight="827" math="0" shadow="0">
            <root>
                <mxCell id="0"/>
                <mxCell id="1" parent="0"/>
                <mxCell id="_nB89muIG61nxib0pZ-7-7" style="edgeStyle=orthogonalEdgeStyle;rounded=0;orthogonalLoop=1;jettySize=auto;html=1;" parent="1" source="_nB89muIG61nxib0pZ-7-4" target="_nB89muIG61nxib0pZ-7-5" edge="1">
                    <mxGeometry relative="1" as="geometry"/>
                </mxCell>
                <mxCell id="_nB89muIG61nxib0pZ-7-33" value="" style="endArrow=none;html=1;rounded=0;" parent="1" edge="1">
                    <mxGeometry width="50" height="50" relative="1" as="geometry">
                        <mxPoint x="200" y="60" as="sourcePoint"/>
                        <mxPoint x="200" y="60" as="targetPoint"/>
                        <Array as="points">
                            <mxPoint x="450" y="60"/>
                            <mxPoint x="450" y="620"/>
                            <mxPoint x="200" y="620"/>
                        </Array>
                    </mxGeometry>
                </mxCell>
                <mxCell id="_nB89muIG61nxib0pZ-7-34" value="ETL" style="edgeLabel;html=1;align=center;verticalAlign=middle;resizable=0;points=[];fontSize=20;" parent="_nB89muIG61nxib0pZ-7-33" vertex="1" connectable="0">
                    <mxGeometry x="0.2012" y="3" relative="1" as="geometry">
                        <mxPoint x="193" y="-373" as="offset"/>
                    </mxGeometry>
                </mxCell>
                <mxCell id="_nB89muIG61nxib0pZ-7-16" style="edgeStyle=orthogonalEdgeStyle;rounded=0;orthogonalLoop=1;jettySize=auto;html=1;entryX=0.66;entryY=0;entryDx=0;entryDy=0;entryPerimeter=0;" parent="1" source="_nB89muIG61nxib0pZ-7-12" target="_nB89muIG61nxib0pZ-7-9" edge="1">
                    <mxGeometry relative="1" as="geometry"/>
                </mxCell>
                <mxCell id="_nB89muIG61nxib0pZ-7-3" value="&lt;div&gt;&lt;br&gt;&lt;/div&gt;id, context, info" style="strokeWidth=2;html=1;shape=mxgraph.flowchart.database;whiteSpace=wrap;" parent="1" vertex="1">
                    <mxGeometry x="248.5" y="529" width="132.5" height="60" as="geometry"/>
                </mxCell>
                <mxCell id="_nB89muIG61nxib0pZ-7-13" style="edgeStyle=orthogonalEdgeStyle;rounded=0;orthogonalLoop=1;jettySize=auto;html=1;dashed=1;endArrow=none;startArrow=none;endFill=0;startFill=0;" parent="1" source="_nB89muIG61nxib0pZ-7-24" target="_nB89muIG61nxib0pZ-7-12" edge="1">
                    <mxGeometry relative="1" as="geometry"/>
                </mxCell>
                <mxCell id="_nB89muIG61nxib0pZ-7-8" style="edgeStyle=orthogonalEdgeStyle;rounded=0;orthogonalLoop=1;jettySize=auto;html=1;entryX=0.5;entryY=0;entryDx=0;entryDy=0;entryPerimeter=0;" parent="1" source="_nB89muIG61nxib0pZ-7-5" target="_nB89muIG61nxib0pZ-7-3" edge="1">
                    <mxGeometry relative="1" as="geometry"/>
                </mxCell>
                <mxCell id="_nB89muIG61nxib0pZ-7-19" style="edgeStyle=orthogonalEdgeStyle;rounded=0;orthogonalLoop=1;jettySize=auto;html=1;" parent="1" source="_nB89muIG61nxib0pZ-7-9" target="_nB89muIG61nxib0pZ-7-17" edge="1">
                    <mxGeometry relative="1" as="geometry"/>
                </mxCell>
                <mxCell id="_nB89muIG61nxib0pZ-7-9" value="semantic search" style="sketch=0;pointerEvents=1;shadow=0;dashed=0;html=1;strokeColor=none;labelPosition=center;verticalLabelPosition=bottom;verticalAlign=top;align=center;fillColor=#505050;shape=mxgraph.mscae.oms.log_search" parent="1" vertex="1">
                    <mxGeometry x="571" y="538" width="50" height="50" as="geometry"/>
                </mxCell>
                <mxCell id="_nB89muIG61nxib0pZ-7-15" style="edgeStyle=orthogonalEdgeStyle;rounded=0;orthogonalLoop=1;jettySize=auto;html=1;" parent="1" source="_nB89muIG61nxib0pZ-7-11" target="_nB89muIG61nxib0pZ-7-12" edge="1">
                    <mxGeometry relative="1" as="geometry"/>
                </mxCell>
                <mxCell id="_nB89muIG61nxib0pZ-7-18" style="edgeStyle=orthogonalEdgeStyle;rounded=0;orthogonalLoop=1;jettySize=auto;html=1;exitX=0.5;exitY=1;exitDx=0;exitDy=0;" parent="1" source="_nB89muIG61nxib0pZ-7-11" target="_nB89muIG61nxib0pZ-7-17" edge="1">
                    <mxGeometry relative="1" as="geometry"/>
                </mxCell>
                <mxCell id="_nB89muIG61nxib0pZ-7-11" value="query" style="shape=manualInput;whiteSpace=wrap;html=1;" parent="1" vertex="1">
                    <mxGeometry x="742" y="384" width="80" height="80" as="geometry"/>
                </mxCell>
                <mxCell id="_nB89muIG61nxib0pZ-7-12" value="&lt;div&gt;embeddings&lt;br&gt;&lt;/div&gt;" style="sketch=0;pointerEvents=1;shadow=0;dashed=0;html=1;strokeColor=none;fillColor=#434445;aspect=fixed;labelPosition=center;verticalLabelPosition=bottom;verticalAlign=top;align=center;outlineConnect=0;shape=mxgraph.vvd.cpu;labelBackgroundColor=default;" parent="1" vertex="1">
                    <mxGeometry x="559" y="379" width="90" height="90" as="geometry"/>
                </mxCell>
                <mxCell id="_nB89muIG61nxib0pZ-7-22" style="edgeStyle=orthogonalEdgeStyle;rounded=0;orthogonalLoop=1;jettySize=auto;html=1;" parent="1" source="_nB89muIG61nxib0pZ-7-17" target="_nB89muIG61nxib0pZ-7-21" edge="1">
                    <mxGeometry relative="1" as="geometry"/>
                </mxCell>
                <mxCell id="_nB89muIG61nxib0pZ-7-17" value="chatgpt, llama, phi3" style="image;aspect=fixed;html=1;points=[];align=center;fontSize=12;image=img/lib/azure2/ai_machine_learning/Batch_AI.svg;" parent="1" vertex="1">
                    <mxGeometry x="758" y="528" width="49.41" height="70" as="geometry"/>
                </mxCell>
                <mxCell id="_nB89muIG61nxib0pZ-7-29" style="edgeStyle=orthogonalEdgeStyle;rounded=0;orthogonalLoop=1;jettySize=auto;html=1;" parent="1" source="_nB89muIG61nxib0pZ-7-20" target="_nB89muIG61nxib0pZ-7-4" edge="1">
                    <mxGeometry relative="1" as="geometry"/>
                </mxCell>
                <mxCell id="_nB89muIG61nxib0pZ-7-20" value="pdf, docs, site, etc" style="strokeWidth=2;html=1;shape=mxgraph.flowchart.multi-document;whiteSpace=wrap;" parent="1" vertex="1">
                    <mxGeometry x="230" y="85" width="170" height="90" as="geometry"/>
                </mxCell>
                <mxCell id="_nB89muIG61nxib0pZ-7-21" value="answer" style="shape=display;whiteSpace=wrap;html=1;" parent="1" vertex="1">
                    <mxGeometry x="733" y="683" width="100" height="50" as="geometry"/>
                </mxCell>
                <mxCell id="_nB89muIG61nxib0pZ-7-25" value="" style="edgeStyle=orthogonalEdgeStyle;rounded=0;orthogonalLoop=1;jettySize=auto;html=1;dashed=1;endArrow=none;startArrow=none;startFill=0;endFill=0;" parent="1" source="_nB89muIG61nxib0pZ-7-5" target="_nB89muIG61nxib0pZ-7-24" edge="1">
                    <mxGeometry relative="1" as="geometry">
                        <mxPoint x="360" y="424" as="sourcePoint"/>
                        <mxPoint x="519" y="424" as="targetPoint"/>
                    </mxGeometry>
                </mxCell>
                <mxCell id="_nB89muIG61nxib0pZ-7-24" value="same" style="html=1;shadow=0;dashed=0;align=center;verticalAlign=middle;shape=mxgraph.arrows2.twoWayArrow;dy=0.65;dx=22;" parent="1" vertex="1">
                    <mxGeometry x="408" y="394" width="100" height="60" as="geometry"/>
                </mxCell>
                <mxCell id="_nB89muIG61nxib0pZ-7-28" style="edgeStyle=orthogonalEdgeStyle;rounded=0;orthogonalLoop=1;jettySize=auto;html=1;entryX=1.005;entryY=0.564;entryDx=0;entryDy=0;entryPerimeter=0;startArrow=classic;startFill=1;" parent="1" source="_nB89muIG61nxib0pZ-7-9" target="_nB89muIG61nxib0pZ-7-3" edge="1">
                    <mxGeometry relative="1" as="geometry"/>
                </mxCell>
                <mxCell id="_nB89muIG61nxib0pZ-7-31" value="" style="endArrow=none;html=1;rounded=0;" parent="1" edge="1">
                    <mxGeometry width="50" height="50" relative="1" as="geometry">
                        <mxPoint x="540" y="370" as="sourcePoint"/>
                        <mxPoint x="540" y="370" as="targetPoint"/>
                        <Array as="points">
                            <mxPoint x="870" y="370"/>
                            <mxPoint x="870" y="750"/>
                            <mxPoint x="210" y="750"/>
                            <mxPoint x="210" y="510"/>
                            <mxPoint x="540" y="510"/>
                        </Array>
                    </mxGeometry>
                </mxCell>
                <mxCell id="_nB89muIG61nxib0pZ-7-32" value="API" style="edgeLabel;html=1;align=center;verticalAlign=middle;resizable=0;points=[];fontSize=20;" parent="_nB89muIG61nxib0pZ-7-31" vertex="1" connectable="0">
                    <mxGeometry x="0.0077" y="2" relative="1" as="geometry">
                        <mxPoint x="128" y="-402" as="offset"/>
                    </mxGeometry>
                </mxCell>
                <mxCell id="_nB89muIG61nxib0pZ-7-4" value="txt splitter" style="sketch=0;pointerEvents=1;shadow=0;dashed=0;html=1;strokeColor=none;fillColor=#434445;aspect=fixed;labelPosition=center;verticalLabelPosition=bottom;verticalAlign=top;align=center;outlineConnect=0;shape=mxgraph.vvd.cpu;labelBackgroundColor=default;" parent="1" vertex="1">
                    <mxGeometry x="270" y="220" width="90" height="90" as="geometry"/>
                </mxCell>
                <mxCell id="_nB89muIG61nxib0pZ-7-5" value="&lt;div&gt;embeddings&lt;br&gt;&lt;/div&gt;" style="sketch=0;pointerEvents=1;shadow=0;dashed=0;html=1;strokeColor=none;fillColor=#434445;aspect=fixed;labelPosition=center;verticalLabelPosition=bottom;verticalAlign=top;align=center;outlineConnect=0;shape=mxgraph.vvd.cpu;labelBackgroundColor=default;" parent="1" vertex="1">
                    <mxGeometry x="270" y="379" width="90" height="90" as="geometry"/>
                </mxCell>
            </root>
        </mxGraphModel>
    </diagram>
</mxfile>
